REM DIRINDEX 1\2\4,1\2\5,1\2\6,1\3\7,1\3\8
REM DIRNAME folder01,folder02,folder03,folder04,folder05,folder06,folder07,folder08
TITLE ""
FILE "037_Proficiency Test02.mp3" MP3
  TRACK 01 AUDIO
    TITLE "0:"
    INDEX 01 00:00:00
  TRACK 02 AUDIO
    TITLE "8:cjc128_3915"
    INDEX 01 00:00:25
  TRACK 03 AUDIO
    TITLE "0:"
    INDEX 01 00:02:38
  TRACK 04 AUDIO
    TITLE "8:cjc128_3916"
    INDEX 01 00:03:12
  TRACK 05 AUDIO
    TITLE "0:"
    INDEX 01 00:05:20
  TRACK 06 AUDIO
    TITLE "7:cjc128_3917"
    INDEX 01 00:05:71
  TRACK 07 AUDIO
    TITLE "0:"
    INDEX 01 00:09:12
  TRACK 08 AUDIO
    TITLE "8:cjc128_3918"
    INDEX 01 00:12:54
  TRACK 09 AUDIO
    TITLE "0:"
    INDEX 01 00:14:33
  TRACK 10 AUDIO
    TITLE "7:cjc128_3919"
    INDEX 01 00:15:21
  TRACK 11 AUDIO
    TITLE "0:"
    INDEX 01 00:19:24
  TRACK 12 AUDIO
    TITLE "8:cjc128_3920"
    INDEX 01 00:23:65
  TRACK 13 AUDIO
    TITLE "0:"
    INDEX 01 00:25:66
  TRACK 14 AUDIO
    TITLE "7:cjc128_3921"
    INDEX 01 00:26:44
  TRACK 15 AUDIO
    TITLE "0:"
    INDEX 01 00:30:24
  TRACK 16 AUDIO
    TITLE "8:cjc128_3922"
    INDEX 01 00:34:40
  TRACK 17 AUDIO
    TITLE "0:"
    INDEX 01 00:36:56
  TRACK 18 AUDIO
    TITLE "7:cjc128_3923"
    INDEX 01 00:37:18
  TRACK 19 AUDIO
    TITLE "0:"
    INDEX 01 00:39:47
  TRACK 20 AUDIO
    TITLE "8:cjc128_3924"
    INDEX 01 00:42:14
  TRACK 21 AUDIO
    TITLE "0:"
    INDEX 01 00:44:18
  TRACK 22 AUDIO
    TITLE "7:cjc128_3925"
    INDEX 01 00:45:00
  TRACK 23 AUDIO
    TITLE "0:"
    INDEX 01 00:48:22
